<svg xmlns="http://www.w3.org/2000/svg" width="1600" height="920" viewBox="0 0 1600 920" role="img" aria-labelledby="title desc">
  <title id="title">OpenPrd scenario overview</title>
  <desc id="desc">A visual map of OpenPrd usage scenarios from unclear ideas to verified handoff.</desc>
  <defs>
    <linearGradient id="bg" x1="0" y1="0" x2="1" y2="1">
      <stop offset="0" stop-color="#f8fafc"/>
      <stop offset="0.45" stop-color="#eef6ff"/>
      <stop offset="1" stop-color="#f7f0ff"/>
    </linearGradient>
    <filter id="shadow" x="-20%" y="-20%" width="140%" height="140%">
      <feDropShadow dx="0" dy="16" stdDeviation="18" flood-color="#0f172a" flood-opacity="0.12"/>
    </filter>
    <marker id="arrow" viewBox="0 0 12 12" refX="11" refY="6" markerWidth="10" markerHeight="10" orient="auto">
      <path d="M2 2 L10 6 L2 10 Z" fill="#475569"/>
    </marker>
    <style>
      .small { font: 500 22px Inter, ui-sans-serif, system-ui, -apple-system, BlinkMacSystemFont, "Segoe UI", sans-serif; fill: #475569; }
      .eyebrow { font: 700 20px Inter, ui-sans-serif, system-ui, -apple-system, BlinkMacSystemFont, "Segoe UI", sans-serif; letter-spacing: 2px; fill: #2563eb; }
      .title { font: 800 58px Inter, ui-sans-serif, system-ui, -apple-system, BlinkMacSystemFont, "Segoe UI", sans-serif; fill: #0f172a; }
      .subtitle { font: 500 26px Inter, ui-sans-serif, system-ui, -apple-system, BlinkMacSystemFont, "Segoe UI", sans-serif; fill: #334155; }
      .card-title { font: 800 28px Inter, ui-sans-serif, system-ui, -apple-system, BlinkMacSystemFont, "Segoe UI", sans-serif; fill: #111827; }
      .card-body { font: 500 21px Inter, ui-sans-serif, system-ui, -apple-system, BlinkMacSystemFont, "Segoe UI", sans-serif; fill: #475569; }
      .dark-title { font: 800 28px Inter, ui-sans-serif, system-ui, -apple-system, BlinkMacSystemFont, "Segoe UI", sans-serif; fill: #ffffff; }
      .dark-body { font: 500 21px Inter, ui-sans-serif, system-ui, -apple-system, BlinkMacSystemFont, "Segoe UI", sans-serif; fill: #cbd5e1; }
      .pill { font: 700 18px Inter, ui-sans-serif, system-ui, -apple-system, BlinkMacSystemFont, "Segoe UI", sans-serif; fill: #ffffff; }
      .mono { font: 700 18px ui-monospace, SFMono-Regular, Menlo, Monaco, Consolas, "Liberation Mono", monospace; fill: #334155; }
      .line { fill: none; stroke: #64748b; stroke-width: 4; marker-end: url(#arrow); }
      .dash { fill: none; stroke: #94a3b8; stroke-width: 3; stroke-dasharray: 10 10; }
    </style>
  </defs>

  <rect width="1600" height="920" rx="0" fill="url(#bg)"/>
  <path d="M0 118 H1600 M0 274 H1600 M0 430 H1600 M0 586 H1600 M0 742 H1600 M190 0 V920 M390 0 V920 M590 0 V920 M790 0 V920 M990 0 V920 M1190 0 V920 M1390 0 V920" stroke="#dbeafe" stroke-width="1" opacity="0.7"/>

  <g transform="translate(92 72)">
    <text class="eyebrow" x="0" y="0">OPENPRD WORKSPACE</text>
    <text class="title" x="0" y="78">From fuzzy intent to verified handoff</text>
    <text class="subtitle" x="2" y="125">Use one local PRD workspace to clarify, review, execute, compare visuals, and keep quality evidence visible.</text>
  </g>

  <g transform="translate(96 210)" filter="url(#shadow)">
    <rect width="392" height="220" rx="18" fill="#ffffff" stroke="#bfdbfe" stroke-width="2"/>
    <rect x="28" y="28" width="84" height="34" rx="17" fill="#2563eb"/>
    <text class="pill" x="49" y="51">01</text>
    <text class="card-title" x="28" y="104">Clarify new ideas</text>
    <text class="card-body" x="28" y="145">Turn rough product prompts</text>
    <text class="card-body" x="28" y="177">into captured facts, open</text>
    <text class="card-body" x="28" y="209">questions, and review scope.</text>
  </g>

  <g transform="translate(604 210)" filter="url(#shadow)">
    <rect width="392" height="220" rx="18" fill="#ffffff" stroke="#bbf7d0" stroke-width="2"/>
    <rect x="28" y="28" width="84" height="34" rx="17" fill="#16a34a"/>
    <text class="pill" x="49" y="51">02</text>
    <text class="card-title" x="28" y="104">Mine existing projects</text>
    <text class="card-body" x="28" y="145">Use discovery to track</text>
    <text class="card-body" x="28" y="177">coverage, evidence, tasks,</text>
    <text class="card-body" x="28" y="209">and standards drift.</text>
  </g>

  <g transform="translate(1112 210)" filter="url(#shadow)">
    <rect width="392" height="220" rx="18" fill="#ffffff" stroke="#fed7aa" stroke-width="2"/>
    <rect x="28" y="28" width="84" height="34" rx="17" fill="#f97316"/>
    <text class="pill" x="49" y="51">03</text>
    <text class="card-title" x="28" y="104">Confirm with visuals</text>
    <text class="card-body" x="28" y="145">Generate architecture and</text>
    <text class="card-body" x="28" y="177">product-flow reviews before</text>
    <text class="card-body" x="28" y="209">teams commit to execution.</text>
  </g>

  <path class="line" d="M488 320 H592"/>
  <path class="line" d="M996 320 H1100"/>

  <g transform="translate(180 542)" filter="url(#shadow)">
    <rect width="520" height="230" rx="18" fill="#0f172a" stroke="#334155" stroke-width="2"/>
    <rect x="30" y="30" width="128" height="36" rx="18" fill="#a855f7"/>
    <text class="pill" x="54" y="54">Agent Loop</text>
    <text class="dark-title" x="30" y="113">Execute one task per session</text>
    <text class="dark-body" x="30" y="154">Convert confirmed changes into</text>
    <text class="dark-body" x="30" y="186">dependency-ready prompts, logs,</text>
    <text class="dark-body" x="30" y="218">verification, and optional commits.</text>
  </g>

  <g transform="translate(900 542)" filter="url(#shadow)">
    <rect width="520" height="230" rx="18" fill="#ffffff" stroke="#fecdd3" stroke-width="2"/>
    <rect x="30" y="30" width="150" height="36" rx="18" fill="#e11d48"/>
    <text class="pill" x="54" y="54">Quality + UI</text>
    <text class="card-title" x="30" y="113">Verify before handoff</text>
    <text class="card-body" x="30" y="154">Keep regression reports, cost</text>
    <text class="card-body" x="30" y="186">guardrails, smoke evidence, and</text>
    <text class="card-body" x="30" y="218">visual compare artifacts together.</text>
  </g>

  <path class="line" d="M800 430 V500 C800 530 760 558 712 630"/>
  <path class="line" d="M1008 430 V500 C1008 530 942 558 900 630"/>
  <path class="dash" d="M700 660 H900"/>

  <g transform="translate(96 822)">
    <rect width="1408" height="54" rx="27" fill="#ffffff" stroke="#dbeafe" stroke-width="2"/>
    <text class="mono" x="40" y="35">openprd clarify</text>
    <text class="small" x="225" y="35">-></text>
    <text class="mono" x="266" y="35">capture</text>
    <text class="small" x="372" y="35">-></text>
    <text class="mono" x="414" y="35">synthesize</text>
    <text class="small" x="566" y="35">-></text>
    <text class="mono" x="608" y="35">diagram</text>
    <text class="small" x="724" y="35">-></text>
    <text class="mono" x="766" y="35">change/tasks</text>
    <text class="small" x="942" y="35">-></text>
    <text class="mono" x="984" y="35">loop</text>
    <text class="small" x="1052" y="35">-></text>
    <text class="mono" x="1094" y="35">quality + handoff</text>
  </g>
</svg>
